<?xml version="1.0" encoding="UTF-8" standalone="no"?>
<svg
   xmlns:dc="http://purl.org/dc/elements/1.1/"
   xmlns:cc="http://creativecommons.org/ns#"
   xmlns:rdf="http://www.w3.org/1999/02/22-rdf-syntax-ns#"
   xmlns:svg="http://www.w3.org/2000/svg"
   xmlns="http://www.w3.org/2000/svg"
   xmlns:sodipodi="http://sodipodi.sourceforge.net/DTD/sodipodi-0.dtd"
   xmlns:inkscape="http://www.inkscape.org/namespaces/inkscape"
   version="1.1"
   width="200"
   height="90"
   id="svg14"
   sodipodi:docname="blog-logo-new.svg"
   inkscape:version="1.0.1 (c497b03c, 2020-09-10)">
  <metadata
     id="metadata20">
    <rdf:RDF>
      <cc:Work
         rdf:about="">
        <dc:format>image/svg+xml</dc:format>
        <dc:type
           rdf:resource="http://purl.org/dc/dcmitype/StillImage" />
        <dc:title></dc:title>
      </cc:Work>
    </rdf:RDF>
  </metadata>
  <defs
     id="defs18" />
  <sodipodi:namedview
     pagecolor="#ffffff"
     bordercolor="#666666"
     borderopacity="1"
     objecttolerance="10"
     gridtolerance="10"
     guidetolerance="10"
     inkscape:pageopacity="0"
     inkscape:pageshadow="2"
     inkscape:window-width="1440"
     inkscape:window-height="855"
     id="namedview16"
     showgrid="false"
     inkscape:zoom="5.485"
     inkscape:cx="99.635369"
     inkscape:cy="52.839562"
     inkscape:window-x="0"
     inkscape:window-y="23"
     inkscape:window-maximized="1"
     inkscape:current-layer="svg14"
     inkscape:document-rotation="0" />
  <g
     id="g23"
     style="fill:#ffff00">
    <path
       fill="#6fadc6"
       d="m 16.538086,66.044922 q -0.02441,-0.732422 -0.02441,-1.464844 0,-2.294922 0.24414,-4.614258 0.292969,-3.076172 0.390625,-6.054687 0.09766,-3.491211 0.292969,-7.250977 0.122071,-2.050781 0.122071,-4.052734 0,-1.635742 -0.07324,-3.24707 0.244141,-0.561524 0.646973,-0.756836 0.402832,-0.195313 1.013184,-0.195313 0.292968,0 0.622558,0.04883 0.32959,0.04883 0.573731,0.244141 0.341797,0.04883 0.842285,0.09766 0.500488,0.04883 0.769043,0.292969 0.09766,0.146484 0.500488,1.000976 0.402832,0.854493 0.952149,2.075196 0.549316,1.220703 1.14746,2.648926 0.598145,1.428222 1.147461,2.70996 0.549317,1.281739 0.952149,2.258301 0.402832,0.976563 0.500488,1.220703 2.294922,-4.15039 4.492188,-8.532714 2.197265,-4.382325 4.80957,-8.264161 0.244141,-0.341797 0.842285,-0.500488 0.598145,-0.158691 0.98877,-0.158691 1.049804,0 1.525879,0.500488 0.476074,0.500488 0.622558,1.281738 0.09766,0.488281 0.12207,1.049805 0.02441,0.292969 -0.02441,0.610351 -0.09766,0.903321 -0.09766,1.708985 0,5.688476 -0.390625,11.291504 -0.390625,5.603027 -0.708008,11.315918 -0.04883,1.171875 -0.04883,2.441406 0,1.269531 0.04883,2.636719 0.02441,0.488281 0.02441,0.952148 0,2.148438 -0.366211,4.003906 -0.341796,0.561524 -1.123046,0.708008 -0.78125,0.146485 -1.31836,0.146485 -1.147461,0 -2.197265,-0.53711 L 34.0918,71.342779 33.99414,70.952154 q 0,0 -0.04883,-0.390625 0,-3.540039 0.256348,-7.128906 0.256348,-3.588867 0.573731,-7.165527 0.317382,-3.57666 0.671386,-7.141113 0.354004,-3.564454 0.598145,-7.128907 -1.44043,2.392578 -2.79541,4.870606 -1.354981,2.478027 -2.55127,5.041504 -0.439453,1.000976 -0.842285,2.148437 -0.402832,1.147461 -0.964355,2.050781 -0.292969,0.439454 -0.98877,0.53711 -0.695801,0.09766 -1.208496,0.09766 -0.488281,0 -1.013184,-0.170898 -0.524902,-0.170899 -0.720215,-0.732422 -0.90332,-2.758789 -1.92871,-5.395508 -1.025391,-2.636719 -2.075196,-5.34668 0,1.806641 0.07324,4.675293 0.07324,2.868653 0.07324,5.944824 0,3.076172 -0.09766,5.883789 -0.09766,2.807618 -0.463867,4.44336 -0.09766,0.610351 -0.793457,0.756836 -0.695801,0.146484 -1.208496,0.146484 -0.390625,0 -0.744629,-0.04883 -0.354004,-0.04883 -0.695801,-0.195312 z m 28.99585,-10.595703 q 0,-0.708008 0.402832,-0.927735 0.402832,-0.219726 1.013183,-0.219726 1.000977,0 1.525879,0.378418 0.524902,0.378418 0.524902,1.330566 0,1.147461 0.170899,2.868653 0.170898,1.721191 0.500488,3.344726 0.32959,1.623535 0.78125,2.79541 0.45166,1.171875 0.939942,1.171875 0.90332,0 1.599121,-1.391601 0.6958,-1.391602 1.220703,-3.417969 0.524902,-2.026367 0.90332,-4.35791 0.378418,-2.331543 0.524902,-4.162598 0.09766,-1.000976 0.476075,-1.452637 0.378418,-0.45166 1.379394,-0.45166 1.147461,0 1.672363,0.952149 0.524903,0.952148 0.671387,2.34375 0.12207,1.196289 0.12207,2.490234 v 0.415039 0.976563 q 0,0.927734 0.02441,1.660156 l 0.708007,14.96582 0.09766,2.490235 q 0.04883,0.341796 0.07324,0.646972 0.02441,0.305176 0.02441,0.646973 0,1.391601 -0.598145,1.794433 -0.598144,0.402832 -1.940918,0.402832 -0.292968,0 -0.744629,-0.04883 -0.45166,-0.04883 -0.878906,-0.195312 -0.427246,-0.146485 -0.732422,-0.402832 -0.305175,-0.256348 -0.305175,-0.646973 l 0.09766,-0.24414 q 0.12207,-1.464844 0.12207,-3.076172 v -0.512696 q -0.02441,-1.904297 -0.12207,-3.857422 -0.09766,-1.953125 -0.219727,-3.90625 -0.12207,-1.953125 -0.12207,-3.759765 -0.341797,0.756836 -0.793457,1.5625 -0.45166,0.805664 -1.049805,1.452637 -0.598144,0.646972 -1.35498,1.074218 -0.756836,0.427246 -1.708985,0.427246 -1.391601,0 -2.294922,-0.732421 -0.90332,-0.732422 -1.403808,-1.904297 Q 46.339596,64.799803 46.119869,63.347166 45.900142,61.894529 45.8269,60.441893 45.75366,58.989256 45.72924,57.670896 45.70483,56.352537 45.533928,55.449217 Z M 75.46167,35.539551 q -0.06104,-0.744629 0.09766,-1.293946 0.158692,-0.549316 0.634766,-0.90332 0.476074,-0.354004 1.525879,-0.354004 h 3.930664 q 0.805664,0 2.111816,0.08545 1.306153,0.08545 2.807617,0.256348 1.501465,0.170899 2.990723,0.524902 1.489258,0.354004 2.722168,0.878907 1.23291,0.524902 2.001953,1.293945 0.769043,0.769043 0.769043,1.818848 0,1.489257 -0.866699,2.79541 -0.866699,1.306152 -2.172852,2.355957 -1.306152,1.049805 -2.758789,1.867676 -1.452636,0.817871 -2.600097,1.47705 4.541015,1.000977 7.104492,4.150391 2.563476,3.149414 2.563476,7.861328 0,2.490235 -0.952148,4.919434 -0.952149,2.429199 -2.600098,4.382324 -1.647949,1.953125 -3.90625,3.149414 -2.258301,1.196289 -4.846191,1.196289 -0.341797,0 -0.769043,-0.07324 -0.427246,-0.07324 -0.78125,-0.231934 -0.354004,-0.158691 -0.610352,-0.45166 -0.256347,-0.292969 -0.256347,-0.756836 0,-2.148437 2.319336,-2.148437 0.390625,0 0.915527,0.109863 0.524902,0.109863 0.817871,0.45166 1.342773,-0.561523 2.453613,-1.782226 1.11084,-1.220704 1.879883,-2.722168 0.769043,-1.501465 1.196289,-3.149414 0.427246,-1.64795 0.427246,-2.990723 0,-1.611328 -0.476074,-3.283691 -0.476074,-1.672364 -1.379394,-3.100586 -0.903321,-1.428223 -2.22168,-2.404786 -1.31836,-0.976562 -3.027344,-1.220703 -0.439453,-0.04883 -0.964355,-0.07324 L 82.49292,48.125 q 0,0 -1.025391,-0.146484 -1.02539,-0.146485 -0.866699,-0.390625 0.195313,4.052734 0.500488,8.081054 0.305176,4.028321 0.817871,8.081055 0.195313,0.195312 0.268555,0.57373 0.07324,0.378418 0.12207,0.805665 0.04883,0.427246 0.04883,0.817871 v 0.659179 q 0,0.439453 -0.292969,0.720215 -0.292969,0.280762 -0.695801,0.45166 -0.402832,0.170899 -0.854492,0.219727 -0.45166,0.04883 -0.793457,0.04883 -1.098633,0 -1.68457,-0.292969 -0.585938,-0.292969 -0.830079,-0.854492 -0.24414,-0.561523 -0.317382,-1.281738 -0.07324,-0.720215 -0.122071,-1.574707 -0.659179,-6.811524 -0.952148,-13.476563 -0.292969,-6.665039 -0.292969,-13.476562 0,-0.805664 -0.06104,-1.550293 z m 4.504394,-1.037598 q 0,3.00293 0.195313,6.018067 0.195312,3.015136 0.341797,6.018066 1.098633,-0.65918 2.880859,-1.550293 1.782227,-0.891113 3.45459,-1.965332 1.672363,-1.074219 2.868652,-2.368164 1.196289,-1.293945 1.196289,-2.807617 0,-1.196289 -1.416015,-1.818848 Q 88.071533,35.405273 86.19165,35.100098 84.311768,34.794922 82.517334,34.72168 80.7229,34.648437 79.966064,34.501953 Z M 101.2959,69.560547 q 0,-0.708008 0.061,-1.489258 0.061,-0.78125 0.10987,-1.464844 l 0.14648,-3.662109 q 0.24414,-4.394531 0.59815,-8.642578 0.354,-4.248047 0.59814,-8.59375 0.14648,-2.392578 0.21973,-4.699707 0.0732,-2.307129 0.21972,-4.699707 -0.0977,-0.195313 -0.0977,-0.268555 0,-0.341797 0.25634,-0.537109 0.25635,-0.195313 0.59815,-0.32959 0.3418,-0.134278 0.72021,-0.183106 0.37842,-0.04883 0.57373,-0.04883 h 0.56153 q 0.75683,0.09766 1.09863,0.476074 0.3418,0.378418 0.43945,0.903321 0.0977,0.524902 0.0488,1.123047 -0.0488,0.598144 -0.0488,1.110839 0,3.54004 -0.17089,7.214356 -0.1709,3.674316 -0.39063,7.373047 -0.21973,3.69873 -0.40283,7.397461 -0.18311,3.69873 -0.18311,7.312011 v 1.708985 q 0,1.147461 -0.64697,1.513672 -0.64697,0.366211 -1.79443,0.366211 -1.00098,0 -1.75782,-0.439453 -0.75683,-0.439454 -0.75683,-1.44043 z m 10.70972,-8.203125 q 0,-1.391602 0.354,-2.868652 0.354,-1.477051 1.12305,-2.661133 0.76904,-1.184082 1.94091,-1.928711 1.17188,-0.744629 2.83204,-0.744629 1.24511,0 2.62451,0.427246 1.37939,0.427246 2.52685,1.220703 1.14746,0.793457 1.86768,1.940918 0.72021,1.147461 0.72021,2.563477 0,1.708984 -0.62256,3.24707 -0.62255,1.538086 -1.7456,2.746582 -1.12305,1.208496 -2.62451,1.904297 -1.50147,0.695801 -3.25928,0.695801 -1.44043,0 -2.51465,-0.524903 -1.07422,-0.524902 -1.79443,-1.403808 -0.72022,-0.878907 -1.07422,-2.075196 -0.354,-1.196289 -0.354,-2.539062 z m 3.58886,-0.04883 q 0,0.439453 0.13428,1.293945 0.13428,0.854492 0.40283,1.672363 0.26856,0.817871 0.6958,1.416016 0.42725,0.598144 1.0376,0.549316 1.29395,-0.146484 2.13623,-0.842285 0.84229,-0.695801 1.36719,-1.696777 0.5249,-1.000977 0.73242,-2.172852 0.20752,-1.171875 0.20752,-2.221679 0,-1.342774 -0.5249,-2.246094 -0.52491,-0.90332 -1.72119,-1.464844 0,0.04883 0.0488,0.04883 0.0488,0 0.0488,-0.04883 l -0.61035,-0.146484 q -0.24414,-0.09766 -0.59814,-0.219727 -0.35401,-0.12207 -0.6958,-0.537109 -0.95215,0.341797 -1.47706,0.878906 -0.5249,0.537109 -0.79345,1.306152 -0.26856,0.769043 -0.32959,1.843262 -0.061,1.074219 -0.061,2.587891 z m 14.90894,-1.269532 q 0,-1.342773 0.25635,-2.868652 0.25634,-1.525879 0.8789,-2.79541 0.62256,-1.269531 1.72119,-2.099609 1.09864,-0.830079 2.80762,-0.830079 1.14746,0 2.22168,0.378418 1.07422,0.378418 2.02637,1.037598 0.29297,-0.488281 0.92773,-0.598144 0.63477,-0.109864 1.12305,-0.109864 0.19531,0 0.54931,0.02441 0.35401,0.02441 0.69581,0.146485 0.34179,0.12207 0.59814,0.292968 0.25635,0.170899 0.30518,0.488282 0.19531,1.708984 0.26855,3.405761 0.0732,1.696778 0.21973,3.381348 0.24414,3.149414 0.75683,6.225586 0.5127,3.076172 0.5127,6.225586 0,1.489258 -0.13428,3.222656 -0.13428,1.733399 -0.70801,3.210449 -0.57373,1.477051 -1.67236,2.453614 -1.09863,0.976562 -3.05176,0.976562 -1.75781,0 -2.69775,-0.622558 -0.93994,-0.622559 -1.69678,-2.087403 0.0488,-0.488281 0.62256,-0.646972 0.57373,-0.158692 0.98877,-0.158692 0.39062,0 0.79346,0.07324 0.40283,0.07324 0.64697,0.244141 l 0.61035,0.390625 q 0.90332,-1.855469 1.09863,-4.052734 0.19532,-2.197266 0.19532,-4.248047 0,-1.708985 -0.1709,-3.381348 -0.1709,-1.672363 -0.3418,-3.356933 -1.70898,3.100585 -5.20019,3.100585 -1.61133,0 -2.62452,-0.683593 -1.01318,-0.683594 -1.5625,-1.733399 -0.54931,-1.049804 -0.75683,-2.368164 -0.20752,-1.318359 -0.20752,-2.636719 z m 3.00293,0.219727 q 0,0.610352 0.0488,1.574707 0.0488,0.964356 0.25634,1.89209 0.20752,0.927734 0.59815,1.599121 0.39062,0.671387 1.09863,0.671387 1.34277,0 2.12402,-1.049805 0.78125,-1.049805 1.23291,-2.502441 0.45166,-1.452637 0.72022,-3.00293 0.26855,-1.550293 0.68359,-2.55127 -0.0488,-0.341796 -0.0488,-0.671386 v -0.671387 q -0.56152,-1.049805 -1.63574,-1.818848 -1.07422,-0.769043 -2.22168,-1.037597 -0.14648,-0.02441 -0.26855,-0.02441 -0.6836,0 -1.12305,0.805664 -0.56152,0.976562 -0.8789,2.331543 -0.31739,1.35498 -0.45167,2.673339 -0.13427,1.31836 -0.13427,1.782227 z"
       id="path10"
       style="fill:#ffff00" />
  </g>
  <path
     fill="#"
     d=""
     id="path12" />
</svg>
