<?xml version="1.0" encoding="UTF-8" standalone="no"?>
<svg
   xmlns:dc="http://purl.org/dc/elements/1.1/"
   xmlns:cc="http://creativecommons.org/ns#"
   xmlns:rdf="http://www.w3.org/1999/02/22-rdf-syntax-ns#"
   xmlns:svg="http://www.w3.org/2000/svg"
   xmlns="http://www.w3.org/2000/svg"
   xmlns:sodipodi="http://sodipodi.sourceforge.net/DTD/sodipodi-0.dtd"
   xmlns:inkscape="http://www.inkscape.org/namespaces/inkscape"
   width="210mm"
   height="297mm"
   viewBox="0 0 210 297"
   version="1.1"
   id="svg8"
   inkscape:version="1.0.1 (c497b03c, 2020-09-10)"
   sodipodi:docname="blog-logo.svg">
  <defs
     id="defs2" />
  <sodipodi:namedview
     id="base"
     pagecolor="#ffffff"
     bordercolor="#666666"
     borderopacity="1.0"
     inkscape:pageopacity="0.0"
     inkscape:pageshadow="2"
     inkscape:zoom="0.35"
     inkscape:cx="400"
     inkscape:cy="560"
     inkscape:document-units="mm"
     inkscape:current-layer="layer1"
     inkscape:document-rotation="0"
     showgrid="false"
     inkscape:window-width="1440"
     inkscape:window-height="855"
     inkscape:window-x="0"
     inkscape:window-y="23"
     inkscape:window-maximized="1" />
  <metadata
     id="metadata5">
    <rdf:RDF>
      <cc:Work
         rdf:about="">
        <dc:format>image/svg+xml</dc:format>
        <dc:type
           rdf:resource="http://purl.org/dc/dcmitype/StillImage" />
        <dc:title></dc:title>
      </cc:Work>
    </rdf:RDF>
  </metadata>
  <g
     inkscape:label="Layer 1"
     inkscape:groupmode="layer"
     id="layer1">
    <path
       id="path14"
       style="font-style:normal;font-weight:normal;font-size:22.819px;line-height:1.25;font-family:sans-serif;fill:#000000;fill-opacity:1;stroke:none;stroke-width:0.356547"
       d="m 109.64964,101.28344 v 18.21491 h 1.99367 v -18.21491 z m -53.567277,0.78445 v 17.43046 h 1.96164 v -15.01924 l 4.358907,10.21953 h 1.251601 l 4.390429,-10.21953 v 15.01924 h 2.10013 v -17.43046 h -2.916615 l -4.072621,9.70432 -4.210079,-9.70432 z m 38.815203,0 v 17.43046 h 5.599654 c 1.09588,0 1.99722,-0.10963 2.70423,-0.32814 0.71409,-0.21852 1.36826,-0.58513 1.96216,-1.10019 0.50198,-0.42923 0.90143,-0.97532 1.19837,-1.63866 0.29695,-0.66335 0.44545,-1.42819 0.44545,-2.29444 0,-1.20962 -0.30783,-2.20851 -0.92294,-2.99671 -0.6151,-0.79602 -1.45628,-1.31509 -2.52387,-1.55701 v -0.0935 c 0.63632,-0.35118 1.14525,-0.8157 1.52703,-1.3932 0.3818,-0.5853 0.57258,-1.2915 0.57258,-2.11873 0,-0.73358 -0.13063,-1.36177 -0.39223,-1.88464 -0.2616,-0.53067 -0.68218,-0.96409 -1.26193,-1.29966 -0.5232,-0.29655 -1.07114,-0.49133 -1.64383,-0.58498 -0.57269,-0.0936 -1.43552,-0.14056 -2.587957,-0.14056 z m 2.099614,1.97818 h 2.503204 c 0.699956,0 1.286396,0.0275 1.760106,0.0822 0.47369,0.0468 0.87692,0.17532 1.20922,0.38603 0.28281,0.17949 0.48769,0.41353 0.61495,0.70228 0.12727,0.28875 0.1912,0.64415 0.1912,1.06557 0,0.50726 -0.071,0.94832 -0.21238,1.32291 -0.13434,0.36679 -0.36741,0.66712 -0.6997,0.90124 -0.3323,0.23412 -0.69325,0.39015 -1.08211,0.46819 -0.38886,0.0702 -0.91188,0.10542 -1.569412,0.10542 H 96.99718 Z m 23.24716,2.01331 c -1.67564,0 -3.00838,0.62054 -3.99821,1.86139 -0.98275,1.23303 -1.47433,2.91466 -1.47433,5.04517 0,2.1305 0.49158,3.81264 1.47433,5.04568 0.98983,1.23304 2.32257,1.8495 3.99821,1.8495 1.66149,0 2.9872,-0.61646 3.97702,-1.8495 0.98982,-1.23304 1.48466,-2.91518 1.48466,-5.04568 0,-2.13051 -0.49484,-3.81214 -1.48466,-5.04517 -0.98982,-1.24085 -2.31553,-1.86139 -3.97702,-1.86139 z m 12.9806,0 c -0.65046,0 -1.30411,0.15654 -1.96164,0.46871 -0.65751,0.30435 -1.2163,0.73317 -1.67586,1.28726 -0.49492,0.5931 -0.88732,1.2993 -1.17719,2.11873 -0.28281,0.81162 -0.42427,1.7794 -0.42427,2.90318 0,2.05247 0.41354,3.64487 1.24076,4.77645 0.83428,1.12379 1.95837,1.68569 3.3724,1.68569 0.84842,0 1.54488,-0.12901 2.08928,-0.38654 0.55148,-0.26534 1.12761,-0.66357 1.72858,-1.19424 v 1.19424 c 0,0.53067 -0.0526,1.01048 -0.15865,1.43971 -0.10605,0.42922 -0.28327,0.79634 -0.53072,1.1007 -0.24745,0.31997 -0.59378,0.5693 -1.03921,0.74879 -0.44542,0.1795 -1.00747,0.26924 -1.6862,0.26924 -0.70702,0 -1.41379,-0.10504 -2.12081,-0.31574 -0.70701,-0.20291 -1.22351,-0.37475 -1.54874,-0.51522 h -0.10593 v 2.24741 c 0.57975,0.17949 1.16671,0.31614 1.76061,0.40979 0.60096,0.10145 1.21611,0.15245 1.84537,0.15245 1.8948,0 3.29802,-0.51908 4.21008,-1.55701 0.91205,-1.03794 1.36839,-2.66501 1.36839,-4.88136 v -11.58895 h -1.86655 l -0.12764,0.56172 c -0.51613,-0.31216 -1.00718,-0.54264 -1.47382,-0.69091 -0.45956,-0.15609 -1.03243,-0.2341 -1.71824,-0.2341 z m -60.290891,0.36329 4.719092,12.44316 -2.205551,5.45549 h 2.131653 l 6.914306,-17.89865 h -2.089277 l -3.669028,9.69243 -3.637504,-9.69243 z m 47.310291,1.53324 c 1.06759,0 1.90172,0.41352 2.50269,1.24075 0.60096,0.81942 0.90123,2.0758 0.90123,3.76928 0,1.65445 -0.30405,2.90318 -0.91208,3.74602 -0.60098,0.83503 -1.43132,1.25264 -2.49184,1.25264 -1.07467,0 -1.91258,-0.42117 -2.51354,-1.26401 -0.60096,-0.85064 -0.90176,-2.0958 -0.90176,-3.73465 0,-1.69348 0.29701,-2.94986 0.8909,-3.76928 0.60097,-0.82723 1.44266,-1.24075 2.5244,-1.24075 z m 13.33045,0.0822 c 0.45249,0 0.90505,0.0581 1.35754,0.17518 0.45956,0.10926 0.9544,0.29691 1.48467,0.56224 v 7.12877 c -0.48785,0.41361 -1.02497,0.74556 -1.61179,0.99528 -0.57976,0.24193 -1.15967,0.36277 -1.73943,0.36277 -1.08174,0 -1.85571,-0.37833 -2.32234,-1.13533 -0.46664,-0.75699 -0.70022,-1.86907 -0.70022,-3.33623 0,-1.5452 0.31489,-2.72356 0.94413,-3.53518 0.62924,-0.81162 1.49156,-1.2175 2.58744,-1.2175 z m -36.57761,2.99672 h 3.2985 c 0.69288,0 1.27984,0.0311 1.76062,0.0935 0.48784,0.0546 0.90139,0.17955 1.24075,0.37466 0.50199,0.28875 0.84832,0.64006 1.03922,1.05368 0.19088,0.41361 0.28628,0.97143 0.28628,1.6738 0,0.61652 -0.0921,1.11978 -0.27595,1.50998 -0.18383,0.39021 -0.47327,0.73744 -0.8692,1.0418 -0.37472,0.28095 -0.85545,0.47624 -1.44229,0.58549 -0.58682,0.10146 -1.34016,0.15193 -2.259289,0.15193 H 96.99718 Z" />
  </g>
</svg>
