<?xml version="1.0" encoding="UTF-8"?>
<svg width="16px" height="24px" viewBox="0 0 16 24" version="1.1" xmlns="http://www.w3.org/2000/svg" xmlns:xlink="http://www.w3.org/1999/xlink">
    <!-- Generator: Sketch 62 (91390) - https://sketch.com -->
    <title>watch</title>
    <desc>Created with Sketch.</desc>
    <g id="Page-1" stroke="none" stroke-width="1" fill="none" fill-rule="evenodd" stroke-linecap="round" stroke-linejoin="round">
        <g id="Extra-large:-Desktops---12-col" transform="translate(-623.000000, -776.000000)" stroke="#B84E93" stroke-width="2">
            <g id="watch" transform="translate(624.000000, 777.000000)">
                <circle id="Oval" cx="7" cy="11" r="7"></circle>
                <polyline id="Path" points="7 8 7 11 8.5 12.5"></polyline>
                <path d="M11.51,16.35 L11.16,20.18 C11.066594,21.2137275 10.1979304,22.0042114 9.16,22.0000167 L4.83,22.0000167 C3.79206961,22.0042114 2.92340596,21.2137275 2.83,20.18 L2.48,16.35 M2.49,5.65 L2.84,1.82 C2.93306827,0.790099559 3.79590345,0.000973918191 4.83,-1.67488792e-05 L9.18,-1.67488792e-05 C10.2179304,-0.00421142768 11.086594,0.786272492 11.18,1.82 L11.53,5.65" id="Shape"></path>
                <circle id="Oval-Copy" cx="7" cy="11" r="7"></circle>
                <polyline id="Path-Copy-4" points="7 8 7 11 8.5 12.5"></polyline>
                <path d="M11.51,16.35 L11.16,20.18 C11.066594,21.2137275 10.1979304,22.0042114 9.16,22.0000167 L4.83,22.0000167 C3.79206961,22.0042114 2.92340596,21.2137275 2.83,20.18 L2.48,16.35 M2.49,5.65 L2.84,1.82 C2.93306827,0.790099559 3.79590345,0.000973918191 4.83,-1.67488792e-05 L9.18,-1.67488792e-05 C10.2179304,-0.00421142768 11.086594,0.786272492 11.18,1.82 L11.53,5.65" id="Shape-Copy"></path>
            </g>
        </g>
    </g>
</svg>